<?xml version="1.0" encoding="utf-8"?>
<!-- Generator: Adobe Illustrator 16.0.4, SVG Export Plug-In . SVG Version: 6.00 Build 0)  -->
<!DOCTYPE svg PUBLIC "-//W3C//DTD SVG 1.1//EN" "http://www.w3.org/Graphics/SVG/1.1/DTD/svg11.dtd">
<svg version="1.1" id="Layer_1" xmlns="http://www.w3.org/2000/svg" xmlns:xlink="http://www.w3.org/1999/xlink" x="0px" y="0px"
	 width="841.89px" height="595.28px" viewBox="0 0 841.89 595.28" enable-background="new 0 0 841.89 595.28" xml:space="preserve">
<polygon points="417.315,347.664 404.608,369.647 459.3,369.647 420.774,302.707 370.906,389.109 492.983,389.109 420.774,263.854 
	337.157,408.642 526.732,408.642 420.774,224.874 303.258,428.08 560.697,428.08 420.774,185.894 269.522,447.617 594.399,447.617 
	420.774,146.983 247.061,447.617 256.252,447.617 420.774,162.869 580.591,439.668 283.312,439.668 420.774,201.76 546.907,420.149 
	317.015,420.149 420.774,240.754 512.989,400.696 350.928,400.696 420.774,279.744 479.249,381.174 384.658,381.174 
	420.774,318.616 445.575,361.707 418.36,361.707 424.215,351.639 "/>
</svg>
